<svg xmlns="http://www.w3.org/2000/svg" viewBox="0 0 182 49" focusable="false" role="img">
<polygon fill="#FE5924" points="164,19 164,1 153,1 153,19 135,19 135,29 153,29 153,47 164,47 164,29 182,29 182,19 "/>
<path fill="#FFA235" d="M0,0v8v11v8v14v8h11h20v-8H11V27h18v-8H11V8h20V0H11H0z M121,9V0h-18H91v9v11v8v21h12V28h16v-8h-16V9H121z
	 M62,0h-9H41v49h12c0.675,0,6.341-0.029,7-0.029C75,48.971,83,37,83,26c0-4,0-2,0-5C83,10,74,0,62,0z M71,25
	c0,10-5,14.973-11,14.973c-1.659,0-5.351,0.027-7,0.027V9c2.706,0,4.972,0,7,0c9,0,11,9.541,11,12C71,21.29,71,24.619,71,25z"/>
</svg>
